HIERARCHY
ROOT Hips
{
	OFFSET 0.000000 0.000000 0.000000
	CHANNELS 6 Xposition Yposition Zposition Zrotation Yrotation Xrotation 
	JOINT LHipJoint
	{
		OFFSET 0.000000 0.000000 0.000000
		CHANNELS 3 Zrotation Yrotation Xrotation
		JOINT LeftUpLeg
		{
			OFFSET 8.178360 -10.767780 5.035740
			CHANNELS 3 Zrotation Yrotation Xrotation
			JOINT LeftLeg
			{
				OFFSET 14.688660 -40.356780 0.000000
				CHANNELS 3 Zrotation Yrotation Xrotation
				JOINT LeftFoot
				{
					OFFSET 15.373200 -42.237540 0.000000
					CHANNELS 3 Zrotation Yrotation Xrotation
					JOINT LeftToeBase
					{
						OFFSET 0.945840 -2.598660 13.935300
						CHANNELS 3 Zrotation Yrotation Xrotation
						End Site
						{
							OFFSET 0.000000 0.000000 0.000000
						}
					}
				}
			}
		}
	}
	JOINT RHipJoint
	{
		OFFSET 0.000000 0.000000 0.000000
		CHANNELS 3 Zrotation Yrotation Xrotation
		JOINT RightUpLeg
		{
			OFFSET -7.833120 -10.767780 5.035740
			CHANNELS 3 Zrotation Yrotation Xrotation
			JOINT RightLeg
			{
				OFFSET -15.255180 -41.913300 0.000000
				CHANNELS 3 Zrotation Yrotation Xrotation
				JOINT RightFoot
				{
					OFFSET -15.409560 -42.337380 0.000000
					CHANNELS 3 Zrotation Yrotation Xrotation
					JOINT RightToeBase
					{
						OFFSET -0.988380 -2.715540 14.178900
						CHANNELS 3 Zrotation Yrotation Xrotation
						End Site
						{
							OFFSET 0.000000 0.000000 0.000000
						}
					}
				}
			}
		}
	}
	JOINT LowerBack
	{
		OFFSET 0.000000 0.000000 0.000000
		CHANNELS 3 Zrotation Yrotation Xrotation
		JOINT Spine
		{
			OFFSET 0.169620 12.213540 -1.160280
			CHANNELS 3 Zrotation Yrotation Xrotation
			JOINT Spine1
			{
				OFFSET 0.340320 12.293100 -0.256500
				CHANNELS 3 Zrotation Yrotation Xrotation
				JOINT Neck
				{
					OFFSET 0.000000 0.000000 0.000000
					CHANNELS 3 Zrotation Yrotation Xrotation
					JOINT Neck1
					{
						OFFSET -0.325020 10.477440 1.032120
						CHANNELS 3 Zrotation Yrotation Xrotation
						JOINT Head
						{
							OFFSET 0.624420 10.568160 -0.743820
							CHANNELS 3 Zrotation Yrotation Xrotation
							End Site
							{
								OFFSET 0.000000 0.000000 0.000000
							}
						}
					}
				}
				JOINT LeftShoulder
				{
					OFFSET 0.000000 0.000000 0.000000
					CHANNELS 3 Zrotation Yrotation Xrotation
					JOINT LeftArm
					{
						OFFSET 20.174460 7.205340 -1.867260
						CHANNELS 3 Zrotation Yrotation Xrotation
						JOINT LeftForeArm
						{
							OFFSET 29.898000 -0.000000 -0.000000
							CHANNELS 3 Zrotation Yrotation Xrotation
							JOINT LeftHand
							{
								OFFSET 20.901360 -0.000000 -0.000000
								CHANNELS 3 Zrotation Yrotation Xrotation
								JOINT LeftFingerBase
								{
									OFFSET 0.000000 0.000000 0.000000
									CHANNELS 3 Zrotation Yrotation Xrotation
									JOINT LeftHandIndex1
									{
										OFFSET 4.291560 -0.000000 -0.000000
										CHANNELS 3 Zrotation Yrotation Xrotation
										End Site
										{
											OFFSET 0.000000 0.000000 0.000000
										}
									}
								}
								JOINT LThumb
								{
									OFFSET 0.000000 0.000000 0.000000
									CHANNELS 3 Zrotation Yrotation Xrotation
									End Site
									{
										OFFSET 0.000000 0.000000 0.000000
									}
								}
							}
						}
					}
				}
				JOINT RightShoulder
				{
					OFFSET 0.000000 0.000000 0.000000
					CHANNELS 3 Zrotation Yrotation Xrotation
					JOINT RightArm
					{
						OFFSET -18.819600 8.244300 -2.427900
						CHANNELS 3 Zrotation Yrotation Xrotation
						JOINT RightForeArm
						{
							OFFSET -31.451400 -0.000000 -0.000000
							CHANNELS 3 Zrotation Yrotation Xrotation
							JOINT RightHand
							{
								OFFSET -20.665020 -0.000000 -0.000000
								CHANNELS 3 Zrotation Yrotation Xrotation
								JOINT RightFingerBase
								{
									OFFSET 0.000000 0.000000 0.000000
									CHANNELS 3 Zrotation Yrotation Xrotation
									JOINT RightHandIndex1
									{
										OFFSET -3.735180 -0.000000 -0.000000
										CHANNELS 3 Zrotation Yrotation Xrotation
										End Site
										{
											OFFSET 0.000000 0.000000 0.000000
										}
									}
								}
								JOINT RThumb
								{
									OFFSET 0.000000 0.000000 0.000000
									CHANNELS 3 Zrotation Yrotation Xrotation
									End Site
									{
										OFFSET 0.000000 0.000000 0.000000
									}
								}
							}
						}
					}
				}
			}
		}
	}
}
MOTION
Frames:	12
Frame Time:	0.0333333
5.066214 106.841376 -170.375124 -7.946413 0.558708 -2.277164 2.074980 1.924046 0.761696 -11.443704 -15.219350 -25.805551 0.145210 6.047828 16.375246 -0.941310 14.072591 20.455626 0.179400 -2.728500 -7.523600 -4.493537 -2.919697 -0.010715 33.625344 -0.447750 15.937978 -8.009517 -13.753296 49.123070 2.789541 -20.510345 12.765816 -0.074900 -1.765400 4.857800 7.719016 4.234581 5.928823 2.278501 5.824483 -0.692887 1.557337 3.296886 -2.984177 -7.059823 -6.087776 -8.911834 6.065140 -7.707686 12.237045 3.218700 -3.789600 8.449800 -2.560127 3.416998 -3.643920 -77.650174 48.672468 40.138408 111.617463 -63.805839 -80.967626 -0.202313 -1.097112 -30.883862 16.907267 6.083370 2.198000 -7.125000 0.000000 0.000000 -7.746000 37.148400 1.507500 0.497392 -2.297256 -1.037989 77.047462 -2.737866 39.308767 -149.653427 42.166350 -108.919009 1.296929 -1.576408 -13.262778 -11.460291 27.881382 -6.185500 7.125000 0.000000 0.000000 10.747900 -0.212400 10.901700 
4.874364 105.008196 -157.823670 -7.246384 0.013291 -4.372284 2.256192 1.924370 0.858346 -13.274594 -11.500848 -25.753395 0.504188 7.116767 20.132313 0.906365 6.386288 24.679259 0.065500 -1.651400 -4.543300 -4.640591 -2.844597 -0.016676 32.348095 1.410592 13.138032 -12.108728 -16.333537 63.985409 3.005636 -20.420014 8.946612 -0.141100 -2.420500 6.669400 5.899569 3.969206 7.673755 1.837677 5.538358 -0.653054 1.258320 3.138723 -3.887812 -5.538127 -5.856279 -7.534224 5.914295 -7.653642 10.744318 2.903800 -3.705500 7.507100 -2.551963 3.302905 -3.481240 -76.348071 48.395188 39.985696 120.511628 -61.646026 -87.164628 -0.196431 -0.870665 -33.288272 12.665338 4.505893 1.211100 -7.125000 0.000000 0.000000 -11.076000 35.070600 2.743600 0.469613 -2.231014 -0.989365 79.886499 -5.455179 41.191830 -149.055490 42.450842 -108.741734 1.193189 -1.239865 -12.893401 -10.858199 21.877308 -4.701700 7.125000 0.000000 0.000000 10.783800 -6.575100 9.654900 
4.942146 102.187914 -145.804806 -5.359820 -0.457037 -6.902026 2.717779 2.043805 1.016088 -16.294363 -11.257494 -24.533641 2.717452 11.007227 32.991253 0.411380 0.711091 11.861609 0.000300 0.115200 0.316400 -4.887342 -2.879314 -0.128016 27.523144 1.699899 7.368047 -16.335514 -17.866293 77.860245 2.769211 -18.179190 5.020184 -0.339500 -3.744200 10.358200 3.203585 3.013378 10.079401 1.821440 4.210507 -0.115818 2.631574 2.457268 -3.969021 -7.353906 -4.858008 -8.000110 6.104006 -5.920960 10.611759 3.477200 -2.974100 7.473800 -2.754103 3.350423 -3.177999 -78.165254 42.803491 39.589319 124.068867 -60.197292 -89.821340 -0.261399 -0.908566 -36.164391 15.867627 5.505412 1.811600 -7.125000 0.000000 0.000000 -8.490500 36.214500 1.850400 0.658541 -2.211135 -1.035790 81.015837 -8.641682 43.420192 -144.923226 45.707527 -106.100838 1.308363 -1.422127 -8.337879 -13.831798 26.153339 -7.049500 7.125000 0.000000 0.000000 9.102800 -1.814000 8.924600 
4.888890 100.228848 -134.690724 -0.990090 -0.468478 -7.629686 3.196407 2.164914 1.037452 -22.948845 -10.673082 -23.608659 5.909614 14.419122 46.060663 -0.187694 2.302317 -0.256697 0.111700 -2.154700 -5.933500 -5.010385 -2.969113 0.039603 19.879378 3.611181 -4.096809 -19.828661 -18.714121 88.769731 2.085945 -14.176667 1.848696 -0.087900 -1.911800 5.262000 -1.897874 2.722008 11.513133 1.099038 3.239822 0.129049 3.600096 1.972518 -4.076330 -8.027163 -4.417052 -9.309255 6.103401 -5.152476 11.243797 3.630300 -2.630900 7.905300 -3.161142 3.374483 -2.675928 -77.694595 30.832668 41.067303 121.119895 -60.675654 -87.968526 -0.139986 -0.978972 -39.781405 16.448967 6.909695 2.333200 -7.125000 0.000000 0.000000 -8.229400 37.782900 1.474100 0.925862 -2.265071 -1.197022 84.279364 -12.633174 42.491427 -136.812969 50.839940 -100.789305 1.188751 -1.228553 -8.298962 -11.427628 24.918761 -5.561500 7.125000 0.000000 0.000000 10.497400 -3.582800 9.992900 
4.881018 98.992404 -124.521378 0.099080 -1.202166 -7.648757 3.411064 2.305651 0.944802 -24.919670 -9.647635 -19.675694 7.601080 15.571016 52.064749 0.088980 2.046224 -8.245227 0.100800 -2.047500 -5.636900 -5.078867 -3.078233 0.588164 17.605235 6.148174 -17.153637 -20.774271 -19.335649 91.797243 1.642806 -11.397679 -1.831719 -0.290100 -3.463400 9.571700 -2.243501 2.223692 12.295210 0.533705 2.484611 0.282316 2.355788 1.567607 -3.953346 -8.368377 -3.891444 -11.018541 6.456097 -4.348488 12.380813 3.934900 -2.229800 8.632900 -3.503571 3.346046 -2.409220 -77.704945 18.356390 39.950387 117.977158 -61.292350 -85.891556 -0.111030 -1.026261 -37.451812 17.467066 7.491135 2.695100 -7.125000 0.000000 0.000000 -7.483200 38.546000 1.197500 1.104350 -2.266575 -1.278632 87.924098 -17.183128 39.699060 -128.767688 54.623856 -95.379021 0.927256 -0.884560 -3.395377 -9.025896 18.422854 -3.304200 7.125000 0.000000 0.000000 11.882400 -10.706400 9.684200 
5.183022 98.734584 -113.845470 0.442337 -3.432398 -7.633458 3.379065 2.464373 0.828951 -26.123118 -5.631557 -14.500322 8.332883 15.780408 54.418905 0.252942 2.693123 -12.823800 0.076100 -1.779700 -4.897200 -5.057749 -3.126680 1.128702 17.994487 9.234825 -27.145640 -18.339397 -19.769019 84.801512 1.473666 -10.425746 -4.463473 0.000000 -0.004900 0.013400 -1.992840 1.852789 12.026775 0.565482 2.023296 0.264069 2.229497 1.322919 -3.750248 -8.240045 -2.692964 -12.301911 5.205766 -2.605803 13.902386 3.617400 -1.554200 9.244100 -3.463886 3.225716 -2.238613 -81.876609 11.998546 36.000920 126.545644 -58.531456 -92.058078 -0.166944 -0.878171 -36.821598 15.610319 6.717872 2.129600 -7.125000 0.000000 0.000000 -8.960900 37.464800 1.678100 1.109020 -2.357903 -1.346027 87.268134 -21.830845 41.536269 -128.966184 54.468622 -95.716954 0.836828 -0.552365 -3.531604 -9.303126 12.475565 -2.305200 7.125000 0.000000 0.000000 11.854100 -16.897100 8.072800 
5.034138 99.622428 -103.308762 1.482780 -3.011133 -5.972325 3.252768 2.531904 0.839463 -27.752062 -4.202325 -9.379749 8.201994 15.422602 53.788830 0.415555 2.212737 -13.645748 1.528800 -7.806700 -22.128400 -4.900716 -3.133229 1.402781 18.630745 10.582281 -34.061930 -12.776770 -18.820582 68.177198 1.971072 -13.003432 -4.996227 -0.055800 1.524100 -4.192200 -3.769793 0.295855 10.805169 0.858759 -0.254306 -0.227085 3.992630 0.221197 -3.824110 -8.089381 -1.142311 -13.811232 3.684463 -0.272107 14.693726 3.201300 -0.641900 9.617900 -3.243663 3.059825 -2.139245 -86.092930 8.838758 32.178317 137.976936 -53.317538 -100.088513 -0.227013 -0.783051 -41.431955 15.029923 6.748041 2.013700 -7.125000 0.000000 0.000000 -9.403000 37.283600 1.804900 0.979209 -2.433305 -1.428162 84.609152 -25.971796 45.324747 -135.364197 51.385341 -100.250658 0.728014 -0.735239 -8.475663 -5.724299 13.834016 -1.609000 7.125000 0.000000 0.000000 14.330500 -15.532200 10.301600 
4.968774 101.376330 -92.210418 1.932593 -3.899474 -5.188123 3.126361 2.645155 0.938626 -27.804705 -2.332886 -3.365461 7.612330 14.654760 51.420961 0.483162 -1.296185 -4.293619 1.934500 -8.728300 -24.949000 -4.769533 -3.158958 1.339803 20.551022 12.115956 -33.165008 -5.475997 -13.910311 42.445707 2.194146 -14.339346 -0.482176 -0.004200 0.417600 -1.147400 -4.198208 -0.774270 9.353247 1.077142 -1.701979 -0.558682 4.722792 -0.486342 -3.477470 -7.351717 0.182079 -14.258855 2.568231 1.478867 15.075924 2.792500 0.084400 9.672700 -3.055718 2.944182 -2.057695 -87.413756 7.336615 30.944790 144.874573 -49.110443 -104.710904 -0.352609 -0.640768 -40.972778 15.270175 4.723379 1.418600 -7.125000 0.000000 0.000000 -8.883700 35.034200 2.196100 0.871417 -2.517818 -1.457857 82.086081 -28.502012 48.051170 -140.109045 48.605084 -103.455036 0.617357 -0.965250 -10.555827 -2.283259 15.611146 -0.778300 7.125000 0.000000 0.000000 16.596600 -13.765900 12.727100 
4.707930 102.612774 -80.713848 2.305712 -4.980285 -5.211149 3.036881 2.800579 1.117723 -26.943967 -0.678609 2.624530 6.735300 13.689129 48.209929 0.951755 -6.381899 7.014201 1.954200 -8.770000 -25.078600 -4.639452 -3.282494 1.015711 22.152570 12.852616 -24.946438 -0.551548 -4.409311 12.703471 1.809768 -12.447450 4.393627 -0.067000 1.669800 -4.594100 -4.253868 -1.418270 7.746559 1.139595 -2.521990 -0.630537 4.833895 -0.925263 -2.564158 -7.218365 0.763323 -14.443963 2.645657 2.232301 14.904615 2.885900 0.458900 9.539500 -2.946076 2.926809 -2.035110 -85.112756 6.112517 32.928902 148.640218 -46.432551 -107.099778 -0.475332 -0.564084 -37.150977 16.521012 4.646036 1.486700 -7.125000 0.000000 0.000000 -7.807300 34.916500 1.948100 0.758802 -2.537582 -1.425808 81.466862 -30.441486 47.959804 -143.617193 46.198941 -105.775107 0.637794 -0.930216 -10.186702 -3.155638 14.390064 -0.962600 7.125000 0.000000 0.000000 16.084700 -14.931300 11.882600 
4.456770 102.770730 -69.439392 4.478812 -4.402113 -5.026956 3.169598 2.788845 1.188769 -28.990314 -2.285828 5.837496 7.200318 13.970262 50.122920 1.275567 -9.420824 14.089902 0.674900 -5.253000 -14.631500 -4.565683 -3.327646 0.925144 20.534748 12.152640 -22.166237 0.082306 0.266314 0.195814 0.833526 -6.537148 4.443914 -0.381800 3.968000 -10.986800 -5.556569 -1.772971 6.149452 0.809125 -3.080843 -0.977780 4.655132 -1.168604 -2.409411 -7.518320 0.466745 -14.125946 2.597031 1.888551 14.724096 2.896800 0.276800 9.419700 -2.949884 2.891579 -2.140883 -80.337683 5.542673 36.857044 149.034647 -46.204131 -107.330043 -0.580670 -0.421643 -33.855295 17.809400 1.871982 0.634000 -7.125000 0.000000 0.000000 -6.469800 31.932600 2.080300 0.617965 -2.467475 -1.378421 82.051982 -33.042542 45.630253 -145.814394 44.464339 -107.168446 0.872336 -0.918169 -10.326448 -6.815347 15.267394 -2.119700 7.125000 0.000000 0.000000 13.485400 -13.850600 10.155900 
4.582650 101.003520 -59.091504 7.214969 -4.428203 -7.356026 3.437171 2.747965 1.070884 -31.500269 -1.319889 5.812000 9.738935 15.599019 58.604117 0.640295 -3.806461 8.192913 0.667600 -5.225400 -14.552600 -4.585235 -3.275820 0.955882 18.384960 13.078018 -21.281614 -0.114723 -1.902797 6.245011 0.160926 -3.751918 9.489652 -0.107400 2.112700 -5.817200 -6.868435 -1.112678 8.502014 0.309860 -2.471575 -1.011393 4.162931 -0.793029 -3.806985 -7.577344 -0.085721 -14.776517 1.782522 1.282565 15.163958 2.534900 -0.123200 9.867800 -3.033389 2.721629 -2.259926 -76.044304 4.270076 40.970045 146.173588 -48.312089 -105.516259 -0.412439 -0.431357 -30.898538 13.605374 2.751778 0.734300 -7.125000 0.000000 0.000000 -10.056900 32.860700 3.031100 0.555583 -2.336378 -1.361639 82.868875 -34.473631 42.230490 -146.915611 43.491681 -107.839201 1.067500 -0.952123 -9.920188 -9.691280 16.751790 -3.274500 7.125000 0.000000 0.000000 11.444500 -12.116100 8.972600 
4.209234 99.442680 -48.952422 6.626461 -2.650512 -9.596864 3.635295 2.729776 0.859120 -28.386553 -0.929955 3.233254 12.821915 17.106018 68.434586 -0.039428 1.056925 2.372391 1.484300 -7.697200 -21.798000 -4.767902 -3.153007 1.181114 18.124797 16.708646 -24.381377 -1.969115 -8.372439 24.500599 -1.034389 -4.218336 21.912282 -0.262000 -3.292800 9.095000 -5.940294 -1.182840 11.006070 0.407671 -2.565671 -0.721456 3.977514 -0.852752 -4.546571 -7.661024 -0.475414 -14.335817 1.391115 0.779803 13.723789 2.357100 -0.343000 9.274700 -3.103058 2.680689 -2.273919 -75.047691 4.799742 43.755813 141.588320 -51.339798 -102.513013 -0.423218 -0.499287 -27.784533 14.887376 3.503100 1.037500 -7.125000 0.000000 0.000000 -9.103100 33.760700 2.536300 0.580338 -2.281973 -1.344842 82.861211 -33.149707 40.790233 -146.552854 43.803911 -107.587159 1.135997 -0.928744 -8.882044 -11.274572 16.760210 -3.800700 7.125000 0.000000 0.000000 10.349000 -11.999000 8.108000 
